<svg width="104" height="80" viewBox="0 0 104 80" fill="none" xmlns="http://www.w3.org/2000/svg">
<rect width="104" height="80" fill="#9CAAAB"/>
<path d="M63.2441 40.8389C63.2441 46.1286 62.3408 50.0592 60.5342 52.6309C58.7275 55.2025 55.9036 56.4883 52.0625 56.4883C48.2702 56.4883 45.4626 55.235 43.6396 52.7285C41.8167 50.2057 40.8727 46.446 40.8076 41.4492V35.4189C40.8076 30.1943 41.7109 26.3125 43.5176 23.7734C45.3242 21.2344 48.1562 19.9648 52.0137 19.9648C55.8385 19.9648 58.6543 21.1937 60.4609 23.6514C62.2676 26.0928 63.1953 29.8688 63.2441 34.9795V40.8389ZM58.7275 34.6621C58.7275 30.8372 58.1904 28.054 57.1162 26.3125C56.042 24.5547 54.3411 23.6758 52.0137 23.6758C49.7025 23.6758 48.0179 24.5465 46.96 26.2881C45.902 28.0296 45.3568 30.707 45.3242 34.3203V41.5469C45.3242 45.388 45.8776 48.2282 46.9844 50.0674C48.1074 51.8903 49.8001 52.8018 52.0625 52.8018C54.2923 52.8018 55.9443 51.9391 57.0186 50.2139C58.109 48.4886 58.6787 45.7705 58.7275 42.0596V34.6621Z" fill="black"/>
</svg>
