<svg width="104" height="80" viewBox="0 0 104 80" fill="none" xmlns="http://www.w3.org/2000/svg">
<rect width="104" height="80" fill="#9CAAAB"/>
<path d="M44.0293 39.1777L45.8359 21.4531H64.0488V25.6279H49.6689L48.5947 35.3203C50.3363 34.2949 52.3138 33.7822 54.5273 33.7822C57.7663 33.7822 60.3379 34.8564 62.2422 37.0049C64.1465 39.137 65.0986 42.026 65.0986 45.6719C65.0986 49.334 64.1058 52.223 62.1201 54.3389C60.1507 56.4385 57.3919 57.4883 53.8438 57.4883C50.7025 57.4883 48.139 56.6175 46.1533 54.876C44.1676 53.1344 43.0365 50.7256 42.7598 47.6494H47.0322C47.3089 49.6839 48.0332 51.222 49.2051 52.2637C50.377 53.2891 51.9232 53.8018 53.8438 53.8018C55.9434 53.8018 57.5872 53.0856 58.7754 51.6533C59.9798 50.221 60.582 48.2435 60.582 45.7207C60.582 43.3444 59.931 41.4401 58.6289 40.0078C57.3431 38.5592 55.626 37.835 53.4775 37.835C51.5081 37.835 49.9619 38.2663 48.8389 39.1289L47.6426 40.1055L44.0293 39.1777Z" fill="black"/>
</svg>
