<svg width="104" height="80" viewBox="0 0 104 80" fill="none" xmlns="http://www.w3.org/2000/svg">
<rect width="104" height="80" fill="#9CAAAB"/>
<path d="M47.5088 52.3838L54.125 45.7677L60.7412 52.3838L62.5088 50.6162L55.8927 44L62.5088 37.3838L60.7412 35.6162L54.125 42.2323L47.5088 35.6162L45.7412 37.3838L52.3573 44L45.7412 50.6162L47.5088 52.3838Z" fill="black"/>
<path d="M66.625 29H44.9566C44.7019 29.0004 44.45 29.0525 44.2161 29.1531C43.9822 29.2537 43.7711 29.4008 43.5956 29.5853L31 42.8768V45.1232L43.5956 58.4147C43.7711 58.5992 43.9822 58.7463 44.2161 58.8469C44.45 58.9475 44.7019 58.9996 44.9566 59H66.625C67.1221 58.9994 67.5987 58.8017 67.9502 58.4502C68.3017 58.0987 68.4994 57.6221 68.5 57.125V30.875C68.4994 30.3779 68.3017 29.9013 67.9502 29.5498C67.5987 29.1983 67.1221 29.0006 66.625 29V29ZM66 56.5H45.2253L33.5 44.1268V43.8732L45.2253 31.5H66V56.5Z" fill="black"/>
</svg>
