<svg width="104" height="80" viewBox="0 0 104 80" fill="none" xmlns="http://www.w3.org/2000/svg">
<rect width="104" height="80" fill="#9CAAAB"/>
<path d="M65.2451 58H41.9541V54.7529L54.2588 41.0811C56.0817 39.014 57.335 37.3376 58.0186 36.0518C58.7184 34.7497 59.0684 33.4069 59.0684 32.0234C59.0684 30.168 58.5068 28.6462 57.3838 27.458C56.2607 26.2699 54.7633 25.6758 52.8916 25.6758C50.6455 25.6758 48.8958 26.3187 47.6426 27.6045C46.4056 28.874 45.7871 30.6481 45.7871 32.9268H41.2705C41.2705 29.6553 42.3203 27.0104 44.4199 24.9922C46.5358 22.974 49.3597 21.9648 52.8916 21.9648C56.1956 21.9648 58.8079 22.8356 60.7285 24.5771C62.6491 26.3024 63.6094 28.6055 63.6094 31.4863C63.6094 34.9857 61.3796 39.1523 56.9199 43.9863L47.3984 54.3135H65.2451V58Z" fill="black"/>
</svg>
