<svg width="104" height="80" viewBox="0 0 104 80" fill="none" xmlns="http://www.w3.org/2000/svg">
<rect width="104" height="80" fill="#071416"/>
<path d="M64.2734 45.7207C63.834 49.4805 62.4424 52.3857 60.0986 54.4365C57.7712 56.471 54.6706 57.4883 50.7969 57.4883C46.5977 57.4883 43.2285 55.9827 40.6895 52.9717C38.1667 49.9606 36.9053 45.9323 36.9053 40.8867V37.4688C36.9053 34.1647 37.4912 31.2594 38.6631 28.7529C39.8512 26.2464 41.5277 24.3258 43.6924 22.9912C45.8571 21.6403 48.3636 20.9648 51.2119 20.9648C54.988 20.9648 58.0153 22.0228 60.2939 24.1387C62.5726 26.2383 63.8991 29.1517 64.2734 32.8789H59.5615C59.1546 30.0469 58.2676 27.9961 56.9004 26.7266C55.5495 25.457 53.6533 24.8223 51.2119 24.8223C48.2171 24.8223 45.8652 25.929 44.1562 28.1426C42.4635 30.3561 41.6172 33.5055 41.6172 37.5908V41.0332C41.6172 44.8906 42.4229 47.9587 44.0342 50.2373C45.6455 52.516 47.8997 53.6553 50.7969 53.6553C53.401 53.6553 55.3949 53.0693 56.7783 51.8975C58.1781 50.7093 59.1058 48.6504 59.5615 45.7207H64.2734Z" fill="#A6ACAE"/>
</svg>
