<svg width="104" height="80" viewBox="0 0 104 80" fill="none" xmlns="http://www.w3.org/2000/svg">
<rect width="104" height="80" fill="#071416"/>
<path d="M40.5635 28.2891C40.5635 26.1569 41.2389 24.3991 42.5898 23.0156C43.957 21.6322 45.7067 20.9404 47.8389 20.9404C50.0036 20.9404 51.7533 21.6403 53.0879 23.04C54.4388 24.4235 55.1143 26.222 55.1143 28.4355V30.1689C55.1143 32.3174 54.4307 34.0752 53.0635 35.4424C51.7126 36.7933 49.9873 37.4688 47.8877 37.4688C45.7718 37.4688 44.0221 36.7933 42.6387 35.4424C41.2552 34.0752 40.5635 32.2604 40.5635 29.998V28.2891ZM43.9326 30.1689C43.9326 31.4385 44.2907 32.4883 45.0068 33.3184C45.723 34.1322 46.6833 34.5391 47.8877 34.5391C49.0433 34.5391 49.971 34.1403 50.6709 33.3428C51.387 32.5452 51.7451 31.4548 51.7451 30.0713V28.2891C51.7451 27.0195 51.3952 25.9697 50.6953 25.1396C49.9954 24.3096 49.0433 23.8945 47.8389 23.8945C46.6344 23.8945 45.6823 24.3096 44.9824 25.1396C44.2826 25.9697 43.9326 27.0521 43.9326 28.3867V30.1689ZM57.873 48.2842C57.873 46.152 58.5485 44.4023 59.8994 43.0352C61.2666 41.6517 63.0163 40.96 65.1484 40.96C67.2806 40.96 69.0303 41.6436 70.3975 43.0107C71.7646 44.3779 72.4482 46.1927 72.4482 48.4551V50.1885C72.4482 52.3206 71.7646 54.0785 70.3975 55.4619C69.0465 56.8291 67.3132 57.5127 65.1973 57.5127C63.0814 57.5127 61.3317 56.8372 59.9482 55.4863C58.5648 54.1191 57.873 52.3044 57.873 50.042V48.2842ZM61.2422 50.1885C61.2422 51.4743 61.6003 52.5322 62.3164 53.3623C63.0326 54.1761 63.9928 54.583 65.1973 54.583C66.3691 54.583 67.305 54.1842 68.0049 53.3867C68.7048 52.5729 69.0547 51.4743 69.0547 50.0908V48.2842C69.0547 46.9984 68.6966 45.9486 67.9805 45.1348C67.2806 44.321 66.3366 43.9141 65.1484 43.9141C63.9928 43.9141 63.0488 44.321 62.3164 45.1348C61.6003 45.9323 61.2422 47.0146 61.2422 48.3818V50.1885ZM48.9131 54.3145L46.3496 52.7031L63.708 24.9199L66.2715 26.5312L48.9131 54.3145Z" fill="#A6ACAE"/>
</svg>
