<svg width="100" height="60" viewBox="0 0 100 60" fill="none" xmlns="http://www.w3.org/2000/svg">
<path d="M0 0H70C86.5685 0 100 13.4315 100 30V30C100 46.5685 86.5685 60 70 60H0V0Z" fill="#585F5F"/>
<path d="M62.3444 39.2444C59.4499 39.2118 56.6436 38.2434 54.3449 36.4841C52.0461 34.7247 50.3784 32.2688 49.5907 29.4833C48.8031 26.6978 48.9378 23.7322 49.9749 21.0296C51.0119 18.327 52.8956 16.0325 55.3444 14.4889C54.1071 14.1672 52.8341 14.003 51.5556 14C47.43 14 43.4733 15.6389 40.5561 18.5561C37.6389 21.4733 36 25.43 36 29.5556C36 33.6811 37.6389 37.6378 40.5561 40.555C43.4733 43.4722 47.43 45.1111 51.5556 45.1111C53.8927 45.109 56.1985 44.5734 58.2974 43.5452C60.3962 42.517 62.2326 41.0232 63.6667 39.1778C63.2273 39.2224 62.786 39.2447 62.3444 39.2444V39.2444Z" fill="black"/>
</svg>
