<svg width="104" height="80" viewBox="0 0 104 80" fill="none" xmlns="http://www.w3.org/2000/svg">
<rect width="104" height="80" fill="#9CAAAB"/>
<path d="M61.2637 41.375C60.3197 42.498 59.1885 43.4014 57.8701 44.085C56.568 44.7686 55.1357 45.1104 53.5732 45.1104C51.5225 45.1104 49.7321 44.6058 48.2021 43.5967C46.6885 42.5876 45.5166 41.1715 44.6865 39.3486C43.8564 37.5094 43.4414 35.4831 43.4414 33.2695C43.4414 30.8932 43.889 28.7529 44.7842 26.8486C45.6956 24.9443 46.9814 23.4876 48.6416 22.4785C50.3018 21.4694 52.2386 20.9648 54.4521 20.9648C57.9678 20.9648 60.7347 22.2832 62.7529 24.9199C64.7874 27.5404 65.8047 31.1211 65.8047 35.6621V36.9805C65.8047 43.8978 64.4375 48.9515 61.7031 52.1416C58.9688 55.3154 54.8428 56.943 49.3252 57.0244H48.4463V53.2158H49.3984C53.1257 53.1507 55.9902 52.1823 57.9922 50.3105C59.9941 48.4225 61.0846 45.444 61.2637 41.375ZM54.3057 41.375C55.8193 41.375 57.2109 40.9111 58.4805 39.9834C59.7663 39.0557 60.7021 37.9082 61.2881 36.541V34.7344C61.2881 31.7721 60.6452 29.3633 59.3594 27.5078C58.0736 25.6523 56.446 24.7246 54.4766 24.7246C52.4909 24.7246 50.8958 25.4896 49.6914 27.0195C48.487 28.5332 47.8848 30.5352 47.8848 33.0254C47.8848 35.4505 48.4626 37.4525 49.6182 39.0312C50.79 40.5938 52.3525 41.375 54.3057 41.375Z" fill="black"/>
</svg>
