<svg width="104" height="80" viewBox="0 0 104 80" fill="none" xmlns="http://www.w3.org/2000/svg">
<rect width="104" height="80" fill="#071416"/>
<path d="M63.5117 30.7305C63.5117 32.5046 63.0397 34.0833 62.0957 35.4668C61.168 36.8503 59.9066 37.9326 58.3115 38.7139C60.167 39.5114 61.6318 40.6751 62.7061 42.2051C63.7965 43.735 64.3418 45.4684 64.3418 47.4053C64.3418 50.4814 63.3001 52.931 61.2168 54.7539C59.1497 56.5768 56.4235 57.4883 53.0381 57.4883C49.6201 57.4883 46.8776 56.5768 44.8105 54.7539C42.7598 52.9147 41.7344 50.4652 41.7344 47.4053C41.7344 45.4847 42.2552 43.7513 43.2969 42.2051C44.3548 40.6589 45.8115 39.487 47.667 38.6895C46.0882 37.9082 44.8431 36.8258 43.9316 35.4424C43.0202 34.0589 42.5645 32.4883 42.5645 30.7305C42.5645 27.7357 43.5247 25.3594 45.4453 23.6016C47.3659 21.8438 49.8968 20.9648 53.0381 20.9648C56.1631 20.9648 58.6859 21.8438 60.6064 23.6016C62.5433 25.3594 63.5117 27.7357 63.5117 30.7305ZM59.8252 47.3076C59.8252 45.3219 59.1904 43.7025 57.9209 42.4492C56.6676 41.196 55.0238 40.5693 52.9893 40.5693C50.9548 40.5693 49.319 41.1878 48.082 42.4248C46.8613 43.6618 46.251 45.2894 46.251 47.3076C46.251 49.3258 46.8451 50.9128 48.0332 52.0684C49.2376 53.224 50.9059 53.8018 53.0381 53.8018C55.154 53.8018 56.8141 53.224 58.0186 52.0684C59.223 50.8965 59.8252 49.3096 59.8252 47.3076ZM53.0381 24.6758C51.264 24.6758 49.8236 25.2292 48.7168 26.3359C47.6263 27.4264 47.0811 28.9157 47.0811 30.8037C47.0811 32.6104 47.6182 34.0752 48.6924 35.1982C49.7829 36.305 51.2314 36.8584 53.0381 36.8584C54.8447 36.8584 56.2852 36.305 57.3594 35.1982C58.4499 34.0752 58.9951 32.6104 58.9951 30.8037C58.9951 28.9971 58.4336 27.5241 57.3105 26.3848C56.1875 25.2454 54.7633 24.6758 53.0381 24.6758Z" fill="#A6ACAE"/>
</svg>
