<svg width="104" height="80" viewBox="0 0 104 80" fill="none" xmlns="http://www.w3.org/2000/svg">
<rect width="104" height="80" fill="#9CAAAB"/>
<path d="M61.6787 21.4287V25.2617H60.8486C57.333 25.3268 54.5335 26.3685 52.4502 28.3867C50.3669 30.4049 49.1624 33.2451 48.8369 36.9072C50.7087 34.7588 53.264 33.6846 56.5029 33.6846C59.5954 33.6846 62.0612 34.7751 63.9004 36.9561C65.7559 39.137 66.6836 41.9528 66.6836 45.4033C66.6836 49.0654 65.6826 51.9951 63.6807 54.1924C61.695 56.3896 59.0257 57.4883 55.6729 57.4883C52.2712 57.4883 49.5124 56.1862 47.3965 53.582C45.2806 50.9616 44.2227 47.5924 44.2227 43.4746V41.7412C44.2227 35.1982 45.6143 30.2015 48.3975 26.751C51.1969 23.2842 55.3555 21.5101 60.873 21.4287H61.6787ZM55.7461 37.4443C54.1999 37.4443 52.7757 37.9082 51.4736 38.8359C50.1715 39.7637 49.2682 40.9274 48.7637 42.3271V43.9873C48.7637 46.917 49.4229 49.277 50.7412 51.0674C52.0596 52.8577 53.7035 53.7529 55.6729 53.7529C57.7074 53.7529 59.3024 53.0042 60.458 51.5068C61.6299 50.0094 62.2158 48.0482 62.2158 45.623C62.2158 43.1816 61.6217 41.2122 60.4336 39.7148C59.2617 38.2012 57.6992 37.4443 55.7461 37.4443Z" fill="black"/>
</svg>
