<svg width="100" height="60" viewBox="0 0 100 60" fill="none" xmlns="http://www.w3.org/2000/svg">
<path d="M0 30C0 13.4315 13.4315 0 30 0H100V60H30C13.4315 60 0 46.5685 0 30V30Z" fill="#585F5F"/>
<path d="M57.001 22.5C52.868 22.5 49.5006 25.8672 49.5006 30C49.5006 34.1328 52.868 37.5 57.001 37.5C61.134 37.5 64.5013 34.1328 64.5013 30C64.5013 25.8672 61.134 22.5 57.001 22.5ZM76.2519 28.7891L68.8531 25.0937L71.4704 17.25C71.822 16.1875 70.8141 15.1797 69.7594 15.5391L61.9153 18.1563L58.212 10.75C57.7119 9.75 56.29 9.75 55.79 10.75L52.0945 18.1484L44.2425 15.5313C43.18 15.1797 42.1721 16.1875 42.5315 17.2422L45.1488 25.0859L37.75 28.7891C36.75 29.2891 36.75 30.7109 37.75 31.2109L45.1488 34.9062L42.5315 42.7578C42.1799 43.8203 43.1878 44.8281 44.2425 44.4688L52.0867 41.8516L55.7822 49.25C56.2822 50.25 57.7041 50.25 58.2042 49.25L61.8996 41.8516L69.7438 44.4688C70.8063 44.8203 71.8142 43.8125 71.4548 42.7578L68.8375 34.9141L76.2363 31.2188C77.252 30.7109 77.252 29.2891 76.2519 28.7891V28.7891ZM64.0716 37.0703C60.173 40.9688 53.8289 40.9688 49.9303 37.0703C46.0317 33.1719 46.0317 26.8281 49.9303 22.9297C53.8289 19.0312 60.173 19.0312 64.0716 22.9297C67.9703 26.8281 67.9703 33.1719 64.0716 37.0703Z" fill="black"/>
</svg>
