<svg width="104" height="80" viewBox="0 0 104 80" fill="none" xmlns="http://www.w3.org/2000/svg">
<rect width="104" height="80" fill="#071416"/>
<path d="M47.5215 37.0293H50.915C53.0472 36.9967 54.7236 36.4352 55.9443 35.3447C57.165 34.2542 57.7754 32.7812 57.7754 30.9258C57.7754 26.7591 55.7002 24.6758 51.5498 24.6758C49.5967 24.6758 48.0342 25.2373 46.8623 26.3604C45.7067 27.4671 45.1289 28.9401 45.1289 30.7793H40.6123C40.6123 27.9635 41.6377 25.6279 43.6885 23.7725C45.7555 21.9007 48.376 20.9648 51.5498 20.9648C54.9027 20.9648 57.5312 21.8519 59.4355 23.626C61.3398 25.4001 62.292 27.8659 62.292 31.0234C62.292 32.5697 61.7874 34.0671 60.7783 35.5156C59.7855 36.9642 58.4264 38.0465 56.7012 38.7627C58.6543 39.3812 60.1598 40.4066 61.2178 41.8389C62.292 43.2712 62.8291 45.0208 62.8291 47.0879C62.8291 50.278 61.7874 52.8089 59.7041 54.6807C57.6208 56.5524 54.9108 57.4883 51.5742 57.4883C48.2376 57.4883 45.5195 56.585 43.4199 54.7783C41.3366 52.9717 40.2949 50.5872 40.2949 47.625H44.8359C44.8359 49.4967 45.4463 50.9941 46.667 52.1172C47.8877 53.2402 49.5234 53.8018 51.5742 53.8018C53.7552 53.8018 55.4235 53.2321 56.5791 52.0928C57.7347 50.9535 58.3125 49.3177 58.3125 47.1855C58.3125 45.1185 57.6777 43.5316 56.4082 42.4248C55.1387 41.318 53.3076 40.7484 50.915 40.7158H47.5215V37.0293Z" fill="#A6ACAE"/>
</svg>
